<svg width="385" height="658" viewBox="0 0 385 658" fill="none" xmlns="http://www.w3.org/2000/svg">
<g clip-path="url(#clip0)">
<path fill-rule="evenodd" clip-rule="evenodd" d="M-67.3255 622.123C-37.1904 462.959 -6.23339 325.203 48.4332 210.848C98.4923 106.161 167.081 14.475 269.59 -75.3178H294.894C180.256 19.953 104.445 112.977 51.4467 223.849C-2.02442 335.705 -34.1021 465.736 -63.7889 622.123H-67.3255ZM-53.7522 622.123H-50.5644C-20.7281 466.847 25.2217 326.869 93.8351 210.797C162.847 94.0945 257.461 1.44918 385 -75.2925H351.353C239.181 -1.32766 154.902 89.6516 91.1454 197.494C20.938 316.216 -23.3681 462.884 -53.7522 622.123ZM-60.5264 622.123H-56.8155C-27.1287 466.519 10.8515 333.508 71.6447 219.658C131.616 107.322 215.546 13.4906 333.97 -75.2925H306.2C200.827 8.71944 125.564 99.9511 69.4281 205.143C7.31496 321.442 -30.2917 462.934 -60.5264 622.123Z" fill="#DB772E" stroke="#DB792E" stroke-width="14"/>
</g>
<path d="M-72.9068 656.755H-75.4012C-45.5209 492.006 -14.8087 349.457 39.3622 231.116C89.0011 122.707 157.004 27.7529 258.633 -65.2453H282.218C168.944 33.2486 93.9318 129.506 41.4443 244.177C-11.6162 360.094 -43.4577 494.813 -72.9068 656.755ZM60.1934 225.221L59.7482 224.993L60.1935 225.221C115.86 116.284 190.485 21.7976 294.961 -65.2191H320.896C203.897 26.5913 120.879 123.663 61.5033 239.813C1.17599 357.799 -36.523 495.605 -65.9842 656.755H-68.6517C-38.6599 491.985 -1.35547 345.572 60.1934 225.221ZM83.5406 230.609C15.4531 350.897 -30.1534 495.918 -59.7785 656.755H-61.9268C-31.7736 491.932 12.1721 340.168 81.7408 217.311C144.969 105.622 228.538 11.3956 339.756 -65.2191H371.267C245.343 14.1948 151.825 110.019 83.5406 230.609Z" fill="black" stroke="black"/>
<defs>
<clipPath id="clip0">
<rect x="385" y="622.123" width="458.946" height="698.123" transform="rotate(-180 385 622.123)" fill="white"/>
</clipPath>
</defs>
</svg>
