<svg width="385" height="734" viewBox="0 0 385 734" fill="none" xmlns="http://www.w3.org/2000/svg">
<g clip-path="url(#clip0)">
<path fill-rule="evenodd" clip-rule="evenodd" d="M452.325 35.1321C422.19 194.295 391.233 332.052 336.567 446.407C286.508 551.094 217.919 642.78 115.41 732.572H90.1065C204.744 637.302 280.555 544.278 333.553 433.406C387.024 321.55 419.102 191.518 448.789 35.1321H452.325ZM438.752 35.1321H435.564C405.728 190.408 359.778 330.386 291.165 446.457C222.153 563.16 127.539 655.806 0 732.547H33.6467C145.819 658.582 230.098 567.603 293.855 459.761C364.062 341.039 408.368 194.371 438.752 35.1321ZM445.526 35.1321H441.816C412.129 190.736 374.149 323.746 313.355 437.597C253.384 549.932 169.454 643.764 51.0304 732.547H78.7996C184.173 648.535 259.436 557.304 315.572 452.112C377.685 335.813 415.292 194.321 445.526 35.1321Z" fill="#DB772E" stroke="#DB792E" stroke-width="14"/>
</g>
<path d="M456.907 0.5H459.401C429.521 165.249 398.809 307.798 344.638 426.139C294.999 534.548 226.996 629.502 125.367 722.5H101.782C215.056 624.006 290.068 527.749 342.556 413.078C395.616 297.161 427.458 162.442 456.907 0.5ZM323.807 432.034L324.252 432.261L323.807 432.034C268.14 540.97 193.515 635.457 89.0393 722.474H63.1037C180.103 630.663 263.121 533.591 322.497 417.442C382.824 299.456 420.523 161.65 449.984 0.5H452.652C422.66 165.27 385.355 311.683 323.807 432.034ZM300.459 426.646C368.547 306.358 414.153 161.336 443.779 0.5H445.927C415.774 165.322 371.828 317.087 302.259 439.944C239.031 551.633 155.462 645.859 44.2438 722.474H12.7328C138.657 643.06 232.175 547.236 300.459 426.646Z" fill="black" stroke="black"/>
<defs>
<clipPath id="clip0">
<rect y="35.1321" width="458.946" height="698.123" fill="white"/>
</clipPath>
</defs>
</svg>
