<svg width="69" height="21" viewBox="0 0 69 21" fill="none" xmlns="http://www.w3.org/2000/svg">
<path fill-rule="evenodd" clip-rule="evenodd" d="M17.3968 16.1159C17.2009 16.8398 16.9214 17.216 16.0197 17.4241C14.0227 17.8052 12.0256 17.9033 10.0284 17.9032C8.03146 17.9033 6.03437 17.8052 4.03729 17.4241C3.13582 17.216 2.85618 16.8398 2.66022 16.116C2.2652 14.0888 2.16412 12.0614 2.16455 10.0341C2.16402 8.0068 2.2652 5.97951 2.66032 3.95222C2.85618 3.22825 3.13582 2.85212 4.0374 2.64399C6.03448 2.26296 8.03146 2.16487 10.0285 2.16487C12.0257 2.16476 14.0228 2.26296 16.0198 2.64399C16.9215 2.85212 17.2009 3.22846 17.3969 3.95222C17.7921 5.97951 17.8931 8.0068 17.8926 10.0341C17.8932 12.0614 17.7921 14.0888 17.3968 16.1159ZM20.0571 10.025H20.0568C20.0558 7.87424 19.8647 5.72325 19.4783 3.57247C19.2354 2.15089 18.1165 0.911501 16.5733 0.595144C14.3965 0.19863 12.2197 0.00202793 10.0428 0.000320199V0C10.0379 0 10.0332 0.000106733 10.0284 0.000106733C10.0237 0.000106733 10.019 0 10.0143 0V0.000320199C7.83763 0.00202793 5.66059 0.198524 3.48377 0.595144C1.94062 0.911501 0.821632 2.15099 0.578814 3.57247C0.192333 5.72325 0.0012808 7.87424 0.000320199 10.025H0C0 10.028 0.000106733 10.0311 0.000106733 10.0341C0.000106733 10.0371 0 10.0403 0 10.0432H0.000320199C0.0012808 12.1939 0.192333 14.3449 0.578814 16.4957C0.821632 17.9171 1.94062 19.1567 3.48377 19.4731C5.66059 19.8694 7.83742 20.0662 10.0143 20.068V20.0681C10.019 20.0681 10.0237 20.0681 10.0284 20.0681C10.0333 20.068 10.038 20.0682 10.0428 20.0682V20.0676C12.2197 20.0662 14.3965 19.8696 16.5733 19.473C18.1165 19.1565 19.2356 17.917 19.4783 16.4956C19.8647 14.3446 20.0558 12.1938 20.0568 10.0431H20.0571C20.0571 10.04 20.057 10.037 20.057 10.034C20.0571 10.031 20.0571 10.028 20.0571 10.025Z" fill="white"/>
<path fill-rule="evenodd" clip-rule="evenodd" d="M15.1248 13.3822L11.8103 10.043L13.297 8.54516C13.4094 8.46404 13.5081 8.36574 13.5878 8.25217L14.8267 7.00404C15.1385 6.70518 15.3859 6.4042 15.3859 5.97214C15.3859 5.29097 14.8338 4.73894 14.1528 4.73894C13.7652 4.73894 13.4495 4.93267 13.1889 5.17292L13.1814 5.18477L11.6125 6.76506L11.6068 6.7593L10.0789 8.29871L8.55112 6.7594L8.54514 6.76517L6.9767 5.18488L6.96901 5.17783C6.66418 4.88848 6.39276 4.73894 6.00511 4.73894C5.32415 4.73894 4.77212 5.29097 4.77212 5.97214C4.77212 6.4042 5.04408 6.69526 5.33119 7.00404L6.57015 8.25217C6.64977 8.36563 6.7485 8.46404 6.861 8.54516L8.34758 10.043L5.03319 13.3822L5.03085 13.3753C4.85965 13.587 4.77148 13.876 4.77148 14.1696C4.77148 14.8505 5.32351 15.4028 6.00457 15.4028C6.43972 15.4025 6.75715 15.1572 7.04074 14.8364L8.2275 13.6408C8.38269 13.5441 8.51622 13.4157 8.61527 13.262L10.0789 11.7874L11.5426 13.262C11.6418 13.4158 11.7752 13.5441 11.9304 13.641L13.1173 14.8365C13.3909 15.108 13.7183 15.4029 14.1534 15.4029C14.8344 15.4027 15.3865 14.8507 15.3865 14.1697C15.3865 13.8762 15.3032 13.5969 15.1319 13.3853L15.1248 13.3822ZM68.9761 14.6739C68.9606 14.5532 68.9373 14.4559 68.9064 14.3814C68.8755 14.3074 68.8368 14.2532 68.7903 14.2191C68.7438 14.185 68.6931 14.168 68.6371 14.168H63.5239V10.7795H67.9411C67.9969 10.7795 68.0478 10.7641 68.0942 10.7331C68.1408 10.7022 68.1793 10.6512 68.2104 10.5799C68.2414 10.5087 68.2646 10.4144 68.28 10.2966C68.2954 10.1791 68.3033 10.0307 68.3033 9.85104C68.3033 9.67781 68.2955 9.53084 68.28 9.41012C68.2646 9.2893 68.2412 9.19356 68.2104 9.12237C68.1795 9.05118 68.1406 8.99856 68.0942 8.9644C68.0478 8.93036 67.9969 8.91349 67.9411 8.91349H63.5239V5.98004H68.6001C68.6559 5.98004 68.7051 5.96307 68.7488 5.92913C68.792 5.89508 68.8289 5.84086 68.8599 5.76657C68.891 5.69229 68.9142 5.59484 68.9295 5.47412C68.945 5.35341 68.9529 5.20654 68.9529 5.03321C68.9529 4.84749 68.9451 4.69433 68.9295 4.57362C68.9142 4.45279 68.891 4.35406 68.8599 4.27647C68.8291 4.1992 68.792 4.14508 68.7488 4.11413C68.7051 4.08307 68.6559 4.06759 68.6001 4.06759H61.8159C61.6119 4.06759 61.4399 4.12811 61.3006 4.24883C61.1613 4.36943 61.0917 4.56604 61.0917 4.83821V15.3099C61.0917 15.5823 61.1613 15.7787 61.3006 15.8994C61.4399 16.0201 61.6118 16.0804 61.8159 16.0804H68.6371C68.693 16.0804 68.7438 16.0635 68.7903 16.0293C68.8368 15.9955 68.8755 15.941 68.9064 15.8667C68.9374 15.7927 68.9606 15.6951 68.9761 15.5744C68.9917 15.4536 68.9992 15.3037 68.9992 15.1241C68.9993 14.9448 68.9917 14.7946 68.9761 14.6739ZM57.1379 4.99532C57.0565 4.91111 56.9139 4.81195 56.7093 4.69775C56.5046 4.58343 56.2476 4.47681 55.9379 4.37776C55.6283 4.2785 55.2662 4.19418 54.8514 4.12512C54.4362 4.05607 53.9768 4.02148 53.4714 4.02148C52.5513 4.02148 51.7175 4.16269 50.9689 4.44522C50.2204 4.72795 49.5811 5.13514 49.0526 5.6672C48.5234 6.19927 48.1143 6.84564 47.8257 7.60622C47.537 8.36681 47.3927 9.22505 47.3927 10.1812C47.3928 11.107 47.5283 11.9351 47.7986 12.6656C48.0696 13.3963 48.4598 14.0156 48.9713 14.5235C49.4822 15.0317 50.1059 15.4195 50.8423 15.6869C51.5788 15.9545 52.4132 16.0883 53.3454 16.0883C53.6639 16.0883 53.9811 16.0733 54.297 16.0432C54.6126 16.0131 54.925 15.9679 55.2346 15.9079C55.5443 15.8479 55.8434 15.7758 56.132 15.6915C56.4205 15.6073 56.6627 15.5261 56.858 15.4479C57.0531 15.3699 57.1825 15.2632 57.2461 15.1279C57.3091 14.9925 57.3406 14.8347 57.3406 14.6545V9.85232C57.3406 9.73192 57.3251 9.62519 57.2952 9.53212C57.2654 9.43883 57.2218 9.35921 57.1647 9.29314C57.1073 9.22697 57.0415 9.17744 56.9662 9.14425C56.891 9.11116 56.8053 9.09473 56.7092 9.09473H52.7681C52.7139 9.09473 52.6658 9.11138 52.6237 9.14425C52.5818 9.17744 52.5451 9.22857 52.5153 9.29773C52.4855 9.36679 52.4627 9.45858 52.4478 9.57278C52.433 9.68688 52.4251 9.8283 52.4251 9.99651C52.4252 10.3211 52.4551 10.5512 52.5151 10.6864C52.5755 10.8217 52.6595 10.8893 52.768 10.8893H54.9774V13.7523C54.7552 13.8727 54.5146 13.963 54.2558 14.023C53.9976 14.083 53.7361 14.1131 53.4712 14.1131C52.9304 14.1131 52.4355 14.026 51.9877 13.8515C51.5399 13.6772 51.1567 13.4186 50.8376 13.076C50.5191 12.7333 50.2709 12.308 50.0939 11.7998C49.9165 11.2918 49.8275 10.704 49.8275 10.0368C49.8275 9.42944 49.9148 8.87475 50.0889 8.37278C50.2636 7.87071 50.513 7.4409 50.8376 7.08302C51.1628 6.72536 51.5531 6.4487 52.0103 6.25327C52.4672 6.05795 52.9779 5.96019 53.5436 5.96019C54.0723 5.96019 54.5371 6.0143 54.9369 6.12253C55.3367 6.23075 55.6806 6.34805 55.9691 6.47421C56.2579 6.60058 56.4895 6.71778 56.6637 6.8259C56.8384 6.93413 56.9644 6.98824 57.0429 6.98824C57.0967 6.98824 57.1431 6.9733 57.1823 6.94331C57.2217 6.91321 57.2546 6.86069 57.2817 6.78534C57.3089 6.71031 57.3299 6.60955 57.3447 6.48329C57.3598 6.35691 57.3675 6.20685 57.3675 6.03234C57.3675 5.73178 57.3493 5.50465 57.3132 5.35138C57.2777 5.19811 57.2191 5.07964 57.1379 4.99532ZM37.8055 11.4657L39.4912 6.3979H39.5006L41.187 11.4657H37.8055ZM41.2881 4.5734C41.2512 4.45685 41.2069 4.36463 41.1545 4.29707C41.1024 4.2294 41.0163 4.1787 40.8968 4.14508C40.7767 4.11125 40.6092 4.08979 40.3942 4.08051C40.1791 4.07122 39.8905 4.06674 39.5283 4.06674C39.2148 4.06663 38.9632 4.07133 38.7725 4.08051C38.5822 4.08979 38.433 4.11125 38.3257 4.14508C38.2186 4.17881 38.14 4.22801 38.0908 4.29237C38.0416 4.35684 37.9985 4.44137 37.962 4.54576L34.2852 15.1238C34.2116 15.3389 34.1656 15.5109 34.1468 15.6398C34.1287 15.7689 34.1502 15.8689 34.2115 15.9393C34.273 16.01 34.3834 16.0545 34.5433 16.0728C34.7032 16.0913 34.9243 16.1006 35.2068 16.1006C35.4705 16.1005 35.6845 16.0943 35.847 16.0821C36.0096 16.0697 36.1357 16.0467 36.2247 16.013C36.3137 15.9792 36.3784 15.9332 36.4182 15.8747C36.4585 15.8165 36.4906 15.7443 36.5149 15.6582L37.2708 13.327H41.7487L42.5503 15.7227C42.5748 15.8027 42.6056 15.8673 42.6427 15.9163C42.6798 15.9655 42.7439 16.0038 42.8363 16.0314C42.9282 16.059 43.0618 16.0775 43.2372 16.0866C43.4119 16.0959 43.6563 16.1006 43.9698 16.1006C44.2705 16.1005 44.5072 16.0928 44.6791 16.0775C44.8511 16.0621 44.9705 16.0222 45.0385 15.9577C45.1061 15.8933 45.1308 15.7964 45.112 15.6674C45.0939 15.5384 45.0475 15.3633 44.9738 15.1421L41.2881 4.5734ZM30.0752 8.75115C29.9884 9.01436 29.8618 9.2401 29.6942 9.4288C29.5273 9.61772 29.3123 9.76458 29.0495 9.86982C28.7863 9.97495 28.4596 10.0275 28.0698 10.0275H26.4233V5.95207H28.0139C28.2678 5.95207 28.5137 5.96926 28.7521 6.00331C28.9904 6.03735 29.2175 6.11932 29.4343 6.24922C29.6511 6.37911 29.8335 6.58041 29.9823 6.85258C30.1311 7.12496 30.2051 7.47174 30.2051 7.89238C30.2052 8.2019 30.1621 8.48816 30.0752 8.75115ZM31.9596 5.36269C31.6997 5.06886 31.3857 4.82583 31.0174 4.63403C30.6493 4.44223 30.2853 4.31073 29.9266 4.23933C29.5678 4.16835 29.2597 4.12192 29.0032 4.10015C28.746 4.07848 28.4752 4.06749 28.1909 4.06749H24.8083C24.5607 4.06749 24.361 4.14039 24.2096 4.28576C24.0576 4.43102 23.9817 4.6494 23.9817 4.94024V15.7461C23.9817 15.8079 24.0005 15.8636 24.0377 15.9132C24.0747 15.9627 24.1399 16.0029 24.2328 16.0339C24.3257 16.0649 24.4506 16.0895 24.6088 16.1082C24.7663 16.1266 24.9627 16.136 25.1981 16.136C25.4393 16.1359 25.6377 16.1266 25.7926 16.1082C25.9468 16.0895 26.0706 16.0649 26.1636 16.0339C26.2565 16.003 26.3228 15.9627 26.3631 15.9132C26.4035 15.8636 26.4234 15.808 26.4234 15.7461V11.9121H27.977C28.7693 11.9121 29.4576 11.8191 30.0427 11.6335C30.6276 11.4477 31.1208 11.1771 31.5233 10.8211C31.9259 10.4654 32.2322 10.0273 32.4422 9.50746C32.653 8.98778 32.758 8.39039 32.758 7.71595C32.758 7.22711 32.69 6.78609 32.5539 6.39299C32.4174 6.00021 32.2195 5.65664 31.9596 5.36269Z" fill="white"/>
</svg>
