<svg width="14" height="14" fill="none" xmlns="http://www.w3.org/2000/svg"><path d="M1.217 11.22c-.086.646-.167 1.24-.242 1.835-.03.22-.087.41-.306.502a.486.486 0 01-.664-.519c.08-.612.173-1.218.26-1.824.075-.526.138-1.045.207-1.57.04-.283.19-.428.474-.404.387.028.773.086 1.16.138l1.559.208c.242.035.485.063.727.11a.502.502 0 01.375.571c-.057.295-.265.427-.571.387-.537-.075-1.08-.133-1.617-.202a18.377 18.377 0 00-.56-.064c-.034-.005-.075 0-.138 0 .04.064.058.11.092.15.757.993 1.715 1.71 2.892 2.125.918.317 1.86.433 2.812.265 2.014-.346 3.527-1.408 4.497-3.22.11-.214.225-.405.502-.416a.486.486 0 01.456.692 6.966 6.966 0 01-2.448 2.835c-.75.502-1.57.854-2.453 1.033a6.884 6.884 0 01-2.973-.029c-1.559-.364-2.846-1.166-3.873-2.396-.047-.069-.093-.12-.168-.207zm10.478-7.666c-.064-.087-.122-.18-.19-.26C10.672 2.26 9.621 1.55 8.34 1.198a5.683 5.683 0 00-2.182-.179c-1.859.22-3.302 1.12-4.37 2.638-.156.22-.271.462-.41.693a.631.631 0 00-.046.087c-.156.277-.398.358-.652.225a.495.495 0 01-.214-.676c.48-.98 1.137-1.824 2.003-2.493A7.039 7.039 0 015.12.205 6.778 6.778 0 017.867.09c1.773.294 3.222 1.137 4.365 2.517.023.029.046.058.075.086.005.006.017.006.046.018.017-.058.04-.11.046-.168.08-.571.156-1.143.23-1.714.041-.312.301-.49.613-.439.254.046.398.306.352.6-.092.607-.179 1.218-.271 1.825l-.208 1.368c-.012.086-.012.179-.046.254-.087.19-.243.306-.456.283-.381-.04-.762-.093-1.143-.139l-1.588-.208a8.8 8.8 0 01-.681-.104.485.485 0 01-.375-.565c.034-.231.294-.422.542-.393.641.075 1.276.162 1.917.237.127.017.254.023.387.034a.123.123 0 00.023-.028z" fill="#fff"/></svg>