<svg width="28" height="26" viewBox="0 0 28 26" fill="none" xmlns="http://www.w3.org/2000/svg">
<path fill-rule="evenodd" clip-rule="evenodd" d="M14.471 0L18.6546 8.46774L28.0008 9.83002L21.2415 16.4293L22.8345 25.7419L14.471 21.3499L6.10747 25.7419L7.6968 16.4293L0.9375 9.83002L10.2837 8.46774L14.471 0Z" fill="#C42526"/>
<path fill-rule="evenodd" clip-rule="evenodd" d="M10.2832 8.46774L14.4705 0V14.2295L10.2832 8.46774Z" fill="#C42526"/>
<path fill-rule="evenodd" clip-rule="evenodd" d="M18.6543 8.46774L14.4707 0V14.2295L18.6543 8.46774Z" fill="#C42526"/>
<path fill-rule="evenodd" clip-rule="evenodd" d="M28.0005 9.83006L14.4707 14.2296L18.6543 8.46777L28.0005 9.83006Z" fill="#C42526"/>
<path fill-rule="evenodd" clip-rule="evenodd" d="M28.0005 9.83008L14.4707 14.2296L21.2412 16.4293L28.0005 9.83008Z" fill="#C42526"/>
<path fill-rule="evenodd" clip-rule="evenodd" d="M22.8342 25.742L14.4707 14.2296V21.3499L22.8342 25.742Z" fill="#C42526"/>
<path fill-rule="evenodd" clip-rule="evenodd" d="M14.4707 14.2296L21.2412 16.4293L22.8342 25.742L14.4707 14.2296Z" fill="#C42526"/>
<path fill-rule="evenodd" clip-rule="evenodd" d="M6.10742 25.742L14.4709 14.2296V21.3499L6.10742 25.742Z" fill="#C42526"/>
<path fill-rule="evenodd" clip-rule="evenodd" d="M6.10742 25.742L7.69675 16.4293L14.4709 14.2296L6.10742 25.742Z" fill="#C42526"/>
<path fill-rule="evenodd" clip-rule="evenodd" d="M7.6968 16.4293L0.9375 9.83008L14.471 14.2296L7.6968 16.4293Z" fill="#C42526"/>
<path fill-rule="evenodd" clip-rule="evenodd" d="M14.471 14.2296L0.9375 9.83006L10.2837 8.46777L14.471 14.2296Z" fill="#C42526"/>
</svg>
