<svg width="22" height="23" viewBox="0 0 22 23" fill="none" xmlns="http://www.w3.org/2000/svg">
<path d="M3.76167 22.5589C2.75603 22.5589 1.81109 22.1059 1.1004 21.2844C-0.366799 19.5881 -0.366799 16.8279 1.1004 15.1317L12.7348 1.68132C13.6721 0.596613 14.9196 0 16.2459 0C17.5725 0 18.82 0.596613 19.7573 1.68132C20.6955 2.76573 21.2123 4.20706 21.2123 5.74032C21.2123 7.27387 20.6962 8.71515 19.7581 9.79891L10.5993 20.3858C10.3244 20.7035 9.87907 20.7035 9.60422 20.3858C9.32925 20.068 9.32925 19.5532 9.60422 19.2353L18.7628 8.64838C19.435 7.87138 19.8047 6.83849 19.8047 5.74032C19.8047 4.64234 19.4343 3.60881 18.7622 2.83171C18.0899 2.05471 17.1965 1.62711 16.2459 1.62711C15.2956 1.62711 14.4021 2.05471 13.7299 2.83171L2.09564 16.2821C1.17749 17.3444 1.17749 19.0718 2.09564 20.1339C2.98627 21.1621 4.5369 21.1621 5.42748 20.1339L13.2398 11.1019C13.4522 10.8563 13.5739 10.5164 13.5739 10.1699C13.5739 9.81856 13.455 9.48736 13.2392 9.23786C12.7952 8.72463 12.0715 8.72308 11.6275 9.23786L6.29209 15.4065C6.01729 15.7245 5.57178 15.7245 5.29698 15.4065C5.02201 15.0888 5.02201 14.5738 5.29698 14.2562L10.6322 8.08752C11.6247 6.94027 13.2405 6.94027 14.2343 8.08752C14.7162 8.64439 14.9814 9.38418 14.9814 10.17C14.9814 10.9453 14.7093 11.7041 14.2351 12.2523L6.42277 21.2844C5.71208 22.1059 4.76709 22.5589 3.76167 22.5589Z" fill="white"/>
</svg>
