<svg width="192" height="114" viewBox="0 0 192 114" fill="none" xmlns="http://www.w3.org/2000/svg">
<path d="M191.738 89.0201H0V101.002H191.738V89.0201Z" fill="#C41011"/>
<path fill-rule="evenodd" clip-rule="evenodd" d="M33.9727 17.1145H40.7051V31.7596H46.8939L55.8472 17.1145H63.7521L52.7334 35.1219L63.7521 53.1372H55.8472L46.8939 38.492H40.7051V53.1372H33.9727V17.1145Z" fill="white"/>
<path fill-rule="evenodd" clip-rule="evenodd" d="M142.864 17.1145L154.644 53.1372H147.19L138.135 23.8547H135.674L126.62 53.1372H119.165L130.945 17.1145H142.864Z" fill="white"/>
<path fill-rule="evenodd" clip-rule="evenodd" d="M168.419 38.6396H179.586L175.237 23.8857H172.791L168.443 38.6396H168.419ZM181.775 45.3798H166.245L163.737 53.145H156.282L168.062 17.13H179.974L191.754 53.145H184.299L181.775 45.3798Z" fill="white"/>
<path fill-rule="evenodd" clip-rule="evenodd" d="M9.1241 16.6796H20.4457C22.5114 16.685 24.5145 17.3893 26.1289 18.678C27.7433 19.9667 28.8739 21.7639 29.3369 23.777L22.7442 25.8192C22.7442 25.2014 22.4988 24.6089 22.0619 24.172C21.6251 23.7351 21.0325 23.4897 20.4147 23.4897H9.1241C8.50626 23.4897 7.91372 23.7351 7.47685 24.172C7.03997 24.6089 6.79454 25.2014 6.79454 25.8192V44.4557C6.79454 45.0735 7.03997 45.6661 7.47685 46.1029C7.91372 46.5398 8.50626 46.7852 9.1241 46.7852H20.4457C21.0636 46.7852 21.6561 46.5398 22.093 46.1029C22.5299 45.6661 22.7753 45.0735 22.7753 44.4557L29.3679 46.4824C28.905 48.4955 27.7743 50.2927 26.1599 51.5814C24.5455 52.8701 22.5425 53.5745 20.4768 53.5798H9.1241C6.70613 53.5736 4.38895 52.6104 2.67918 50.9006C0.969409 49.1908 0.00615002 46.8737 0 44.4557V25.8192C0.00615002 23.4013 0.969409 21.0841 2.67918 19.3743C4.38895 17.6646 6.70613 16.7013 9.1241 16.6951V16.6796Z" fill="white"/>
<path fill-rule="evenodd" clip-rule="evenodd" d="M94.1385 0L102.867 17.6658L122.365 20.5079L108.263 34.2755L111.587 53.704L94.1385 44.5411L76.6901 53.704L80.0059 34.2755L65.9043 20.5079L85.4027 17.6658L94.1385 0Z" fill="#E3000F"/>
<path fill-rule="evenodd" clip-rule="evenodd" d="M85.4014 17.6658L94.1372 0V29.6863L85.4014 17.6658Z" fill="#DD050B"/>
<path fill-rule="evenodd" clip-rule="evenodd" d="M102.865 17.6658L94.1367 0V29.6863L102.865 17.6658Z" fill="#A80401"/>
<path fill-rule="evenodd" clip-rule="evenodd" d="M122.363 20.5079L94.1367 29.6863L102.865 17.6658L122.363 20.5079Z" fill="#FF2A00"/>
<path fill-rule="evenodd" clip-rule="evenodd" d="M122.363 20.5079L94.1367 29.6863L108.262 34.2756L122.363 20.5079Z" fill="#BC1010"/>
<path fill-rule="evenodd" clip-rule="evenodd" d="M111.585 53.7041L94.1367 29.6863V44.5411L111.585 53.7041Z" fill="#DD050B"/>
<path fill-rule="evenodd" clip-rule="evenodd" d="M94.1367 29.6863L108.262 34.2756L111.585 53.7041L94.1367 29.6863Z" fill="#A80401"/>
<path fill-rule="evenodd" clip-rule="evenodd" d="M76.6895 53.7041L94.1378 29.6863V44.5411L76.6895 53.7041Z" fill="#A80401"/>
<path fill-rule="evenodd" clip-rule="evenodd" d="M76.6895 53.7041L80.0052 34.2756L94.1378 29.6863L76.6895 53.7041Z" fill="#DD050B"/>
<path fill-rule="evenodd" clip-rule="evenodd" d="M80.0059 34.2756L65.9043 20.5079L94.1385 29.6863L80.0059 34.2756Z" fill="#A80401"/>
<path fill-rule="evenodd" clip-rule="evenodd" d="M94.1385 29.6863L65.9043 20.5079L85.4027 17.6658L94.1385 29.6863Z" fill="#FF2A00"/>
<path fill-rule="evenodd" clip-rule="evenodd" d="M0.231445 83.235V64.9635H18.93V68.0696H4.479V83.2195L0.231445 83.235ZM185.99 67.9376H176.323V72.2939H185.99C186.525 72.3435 187.064 72.2412 187.543 71.9988C187.695 71.8792 187.813 71.7231 187.888 71.5452C187.963 71.3673 187.991 71.1734 187.97 70.9816V69.2577C187.99 69.0659 187.962 68.8722 187.887 68.6945C187.812 68.5167 187.694 68.3606 187.543 68.2405C187.066 67.9908 186.526 67.8855 185.99 67.9376ZM185.99 75.3068H176.323V79.9659H185.99C186.561 80.0275 187.136 79.9021 187.629 79.6087C187.787 79.438 187.907 79.2354 187.981 79.0143C188.055 78.7933 188.08 78.5591 188.056 78.3274V76.953C188.083 76.7235 188.059 76.4908 187.985 76.2719C187.911 76.0529 187.79 75.8532 187.629 75.6873C187.136 75.3938 186.561 75.2685 185.99 75.3301V75.3068ZM172.122 83.235V64.9635H187.776C188.88 64.8766 189.979 65.1789 190.882 65.8177C191.228 66.1705 191.493 66.5941 191.659 67.0593C191.826 67.5245 191.889 68.0202 191.845 68.5122V70.7408C191.864 71.1279 191.801 71.5146 191.66 71.8758C191.52 72.237 191.305 72.5646 191.03 72.8374C190.382 73.4112 189.563 73.7551 188.7 73.8159C189.621 73.8892 190.486 74.2884 191.139 74.9418C191.727 75.5926 192.034 76.4495 191.993 77.3257V79.6553C192.028 80.1826 191.924 80.7099 191.691 81.1842C191.458 81.6585 191.104 82.0632 190.665 82.3576C189.425 83.0319 188.019 83.339 186.611 83.2428L172.122 83.235ZM138.529 83.235V64.9635H157.259V68.0696H142.816V72.1386H151.241V75.2446H142.8V79.7795H157.422V83.2117L138.529 83.235ZM100.356 69.2577C100.356 67.5959 100.674 66.4622 101.288 65.8565C101.901 65.2508 103.105 64.9402 104.883 64.9402H118.355C120.141 64.9402 121.345 65.2508 121.966 65.8565C122.588 66.4622 122.898 67.5959 122.898 69.2577V78.8943C122.898 80.5638 122.588 81.7053 121.966 82.3032C121.345 82.9011 120.141 83.2117 118.355 83.2117H104.906C103.128 83.2117 101.932 82.9166 101.311 82.3032C100.69 81.6897 100.379 80.5638 100.379 78.8943V69.3043L100.356 69.2577ZM104.603 79.7795H118.627V68.2249H104.627V79.8028L104.603 79.7795ZM80.3604 68.1317H70.8326V72.985H80.3837C80.909 73.0344 81.437 72.9234 81.8979 72.6666C82.0479 72.5198 82.1623 72.3406 82.2323 72.1427C82.3023 71.9448 82.326 71.7336 82.3017 71.5251V69.5761C82.3248 69.37 82.3004 69.1614 82.2304 68.9663C82.1604 68.7711 82.0467 68.5945 81.8979 68.4501C81.437 68.1933 80.909 68.0823 80.3837 68.1317H80.3604ZM66.6316 83.2505V64.9635H82.2474C83.3663 64.8671 84.4839 65.1637 85.4078 65.8022C85.76 66.1526 86.0304 66.5766 86.1995 67.0438C86.3687 67.511 86.4324 68.0098 86.3862 68.5045V72.589C86.4312 73.0824 86.3669 73.5797 86.1978 74.0454C86.0287 74.5112 85.7589 74.9339 85.4078 75.2835C84.4839 75.922 83.3663 76.2185 82.2474 76.1221H70.8326V83.235L66.6316 83.2505ZM32.7598 83.2505V64.9635H51.4584V68.0696H37.0307V72.1386H45.4404V75.2446H37.0307V79.7795H51.6525V83.2117L32.7598 83.2505Z" fill="#C41011"/>
<path fill-rule="evenodd" clip-rule="evenodd" d="M5.49739 98.0355V93.1822H9.45764V98.0355H10.8476V92.0563H4.10742V98.0355H5.49739ZM182.808 95.6283H185.425L184.12 93.1978L182.808 95.6283ZM180.129 98.0355L183.499 92.0563H184.842L188.274 98.0355H186.721L186.007 96.7232H182.218L181.519 98.0355H180.129ZM177.45 93.0114H174.274V94.4402H177.45C177.621 94.454 177.792 94.4218 177.947 94.347C177.995 94.3053 178.034 94.2525 178.058 94.1931C178.082 94.1337 178.092 94.0693 178.086 94.0053V93.4385C178.092 93.3757 178.082 93.3124 178.058 93.2543C178.034 93.1961 177.995 93.1447 177.947 93.1046C177.792 93.0298 177.621 92.9976 177.45 93.0114ZM177.45 95.4186H174.274V96.9717H177.45C177.636 96.9922 177.824 96.9513 177.986 96.8552C178.038 96.801 178.077 96.7361 178.101 96.6649C178.125 96.5938 178.134 96.5183 178.125 96.4436V95.9855C178.133 95.9097 178.124 95.8332 178.1 95.761C178.076 95.6887 178.037 95.6224 177.986 95.5662C177.824 95.4711 177.636 95.4303 177.45 95.4497V95.4186ZM172.907 98.0355V92.0563H178.032C178.399 92.0242 178.765 92.1233 179.065 92.3358C179.175 92.4523 179.26 92.5906 179.313 92.7417C179.367 92.8928 179.388 93.0535 179.375 93.2133V93.9432C179.381 94.0692 179.36 94.1948 179.315 94.3124C179.269 94.43 179.2 94.5369 179.111 94.6265C178.9 94.8246 178.624 94.9404 178.335 94.9527C178.629 94.983 178.904 95.1148 179.111 95.3254C179.207 95.4297 179.282 95.5521 179.33 95.6855C179.378 95.8188 179.398 95.9604 179.391 96.102V96.8785C179.399 97.0515 179.362 97.2236 179.285 97.3785C179.207 97.5335 179.091 97.666 178.948 97.7637C178.544 97.9823 178.087 98.0819 177.628 98.051L172.907 98.0355ZM163.907 93.4695C163.862 93.0743 163.971 92.6768 164.21 92.3591C164.554 92.1179 164.973 92.0102 165.39 92.0563H169.793C170.208 92.0092 170.626 92.117 170.966 92.3591C171.088 92.5148 171.178 92.6929 171.232 92.8834C171.285 93.074 171.3 93.2731 171.276 93.4695V96.6222C171.319 97.0185 171.208 97.4161 170.966 97.7326C170.625 97.974 170.208 98.0818 169.793 98.0355H165.39C164.973 98.0802 164.554 97.9726 164.21 97.7326C163.971 97.4149 163.862 97.0175 163.907 96.6222V93.454V93.4695ZM165.297 96.9095H169.886V93.1201H165.297V96.9095ZM155.979 98.0355V92.0563H157.377V94.5489L160.692 92.0563H162.696L158.736 94.875L163.185 98.0355H160.949L157.369 95.4031V98.0355H155.979ZM154.325 98.0355V92.0563H153.378L149.169 95.5817C148.998 95.7137 148.874 95.8224 148.788 95.9001L148.486 96.2262C148.486 96.0787 148.486 95.9544 148.486 95.8379V95.5196C148.486 95.4264 148.486 95.3177 148.486 95.1934V92.0873H147.235V98.0355H148.183L152.57 94.3315C152.668 94.2538 152.761 94.1709 152.85 94.083C152.929 94.0093 153.004 93.9315 153.075 93.85C153.075 93.9199 153.075 94.0053 153.075 94.1218C153.075 94.2383 153.075 94.316 153.075 94.3703C153.075 94.4247 153.075 94.6343 153.075 94.7974V98.0355H154.325ZM138.538 98.0355V92.0563H139.928V94.3858H144.269V92.0563H145.675V98.0355H144.269V95.4574H139.928V98.0355H138.538ZM135.665 93.1201H131.907V96.9095H135.665V95.6205L137.055 95.9078V96.6145C137.102 97.0123 136.994 97.4129 136.752 97.7326C136.408 97.9713 135.989 98.0787 135.572 98.0355H132.008C131.588 98.0799 131.167 97.9725 130.82 97.7326C130.58 97.4149 130.472 97.0175 130.517 96.6222V93.454C130.472 93.0588 130.58 92.6613 130.82 92.3436C131.166 92.1025 131.588 91.9949 132.008 92.0408H135.572C135.989 91.9961 136.408 92.1036 136.752 92.3436C136.992 92.6613 137.1 93.0588 137.055 93.454V94.0209L135.665 94.2461V93.1046V93.1201ZM123.241 98.0355V92.0563H129.36V93.0735H124.646V94.4091H127.403V95.4264H124.646V96.9095H129.43V98.0355H123.241ZM118.931 92.0563L122.387 98.0355H120.764L118.349 93.7103L116.019 98.0355H114.629L117.922 92.0563H118.931ZM106.507 93.4695C106.46 93.0753 106.565 92.6779 106.802 92.3591C107.149 92.1193 107.571 92.0118 107.99 92.0563H112.393C112.805 92.0081 113.221 92.1162 113.558 92.3591C113.681 92.5142 113.773 92.6921 113.828 92.8826C113.882 93.0732 113.899 93.2726 113.876 93.4695V96.6222C113.917 97.0195 113.803 97.4172 113.558 97.7326C113.221 97.9756 112.805 98.0836 112.393 98.0355H107.99C107.571 98.0799 107.149 97.9725 106.802 97.7326C106.571 97.4112 106.466 97.016 106.507 96.6222V93.454V93.4695ZM107.897 96.9095H112.486V93.1201H107.897V96.9095ZM98.6874 98.0355V92.0563H100.093V94.5489L103.401 92.0563H105.42L101.46 94.875L105.909 98.0355H103.68L100.101 95.4031V98.0355H98.6874ZM88.5072 95.6438H91.1241L89.8273 93.2133L88.5072 95.6438ZM85.8205 98.0355L89.1906 92.0563H90.534L93.9662 98.0355H92.4131L91.691 96.7232H87.9016L87.2027 98.0355H85.8205ZM81.3477 98.0355H82.7144V93.0968H86.1389L86.7834 92.0563H81.3477V98.0355ZM73.7845 98.0355V92.0563H79.9034V93.0735H75.1822V94.4091H77.9466V95.4264H75.1822V96.9095H79.9733V98.0355H73.7845ZM69.4825 92.0563L72.9303 98.0355H71.3772L68.9545 93.7103L66.6249 98.0355H65.235L68.5274 92.0563H69.4825ZM57.0582 93.4695C57.0132 93.0743 57.1216 92.6768 57.3611 92.3591C57.7045 92.1179 58.1242 92.0102 58.5414 92.0563H62.9442C63.3568 92.0074 63.7726 92.1155 64.109 92.3591C64.2345 92.5131 64.3273 92.6908 64.3821 92.8817C64.4368 93.0726 64.4522 93.2725 64.4274 93.4695V96.6222C64.4513 96.8192 64.4355 97.019 64.3808 97.2097C64.3261 97.4004 64.2337 97.5782 64.109 97.7326C63.7723 97.9756 63.3567 98.0836 62.9442 98.0355H58.5414C58.1243 98.0802 57.7051 97.9726 57.3611 97.7326C57.1216 97.4149 57.0132 97.0175 57.0582 96.6222V93.454V93.4695ZM58.4482 96.9095H63.0374V93.1201H58.4482V96.9095ZM48.5476 93.1046V98.0355H47.1576V93.1201H44.4087V92.0563H51.3042V93.1201L48.5476 93.1046ZM37.0473 98.0355V92.0563H38.4528V94.5489L41.7686 92.0563H43.7798L39.8195 94.875L44.269 98.0355H42.0248L38.4528 95.3875V98.0355H37.0473ZM29.5617 98.0355V92.0563H35.6807V93.0735H30.9517V94.4091H33.7083V95.4264H30.9517V96.9095H35.735V98.0355H29.5617ZM20.4764 93.4695C20.4314 93.0743 20.5398 92.6768 20.7793 92.3591C21.1227 92.1179 21.5424 92.0102 21.9596 92.0563H26.3624C26.7773 92.0092 27.1949 92.117 27.535 92.3591C27.6571 92.5148 27.7474 92.6929 27.8007 92.8834C27.854 93.074 27.8693 93.2731 27.8456 93.4695V96.6222C27.8884 97.0185 27.7772 97.4161 27.535 97.7326C27.1945 97.974 26.7772 98.0818 26.3624 98.0355H21.9596C21.5425 98.0802 21.1233 97.9726 20.7793 97.7326C20.5398 97.4149 20.4314 97.0175 20.4764 96.6222V93.454V93.4695ZM21.8664 96.9095H26.4556V93.1201H21.8664V96.9095ZM17.0753 93.0891H13.9692V94.6421H17.0753C17.2474 94.66 17.4208 94.6248 17.5723 94.5411C17.6207 94.4928 17.6577 94.4343 17.6805 94.3698C17.7034 94.3053 17.7115 94.2364 17.7043 94.1684V93.5317C17.7115 93.4636 17.7034 93.3948 17.6805 93.3303C17.6577 93.2658 17.6207 93.2073 17.5723 93.1589C17.4208 93.0753 17.2474 93.0401 17.0753 93.058V93.0891ZM12.5792 98.0355V92.0563H17.6887C18.0552 92.0273 18.421 92.1202 18.7293 92.3203C18.8436 92.4374 18.9313 92.5778 18.9863 92.7319C19.0412 92.8861 19.0622 93.0503 19.0476 93.2133V94.5489C19.0609 94.7095 19.0393 94.871 18.9844 95.0225C18.9295 95.1739 18.8424 95.3117 18.7293 95.4264C18.4269 95.6408 18.0578 95.7399 17.6887 95.7059H13.9459V98.0355H12.5792Z" fill="white"/>
<path fill-rule="evenodd" clip-rule="evenodd" d="M45.7677 107.905H42.0093V111.889H45.7677V110.537L47.1576 110.84V111.617C47.2158 111.823 47.2177 112.041 47.1633 112.249C47.1088 112.456 47 112.645 46.848 112.796C46.696 112.948 46.5063 113.056 46.2986 113.109C46.091 113.162 45.8728 113.159 45.6667 113.1H42.1025C41.6842 113.145 41.264 113.035 40.9222 112.789C40.6834 112.448 40.5759 112.031 40.6193 111.617V108.301C40.5745 107.886 40.6821 107.47 40.9222 107.129C41.2622 106.879 41.6831 106.766 42.1025 106.81H45.6667C45.8733 106.753 46.0914 106.751 46.2988 106.806C46.5061 106.861 46.6953 106.969 46.8469 107.121C46.9985 107.273 47.1071 107.462 47.1617 107.669C47.2163 107.876 47.2149 108.094 47.1576 108.301V108.907L45.7677 109.14V107.944V107.905ZM146.762 107.905H149.091C149.269 107.887 149.447 107.931 149.596 108.029C149.643 108.082 149.678 108.143 149.7 108.21C149.721 108.277 149.728 108.348 149.72 108.418V110.273C149.728 110.343 149.72 110.414 149.699 110.481C149.678 110.548 149.643 110.609 149.596 110.662C149.442 110.747 149.267 110.785 149.091 110.77H146.762V107.905ZM146.762 113.084V111.943H149.751C150.12 111.972 150.487 111.873 150.792 111.663C150.906 111.537 150.993 111.388 151.048 111.227C151.103 111.065 151.124 110.894 151.11 110.724V108.037C151.124 107.869 151.103 107.701 151.048 107.541C150.994 107.382 150.906 107.236 150.792 107.113C150.492 106.893 150.122 106.788 149.751 106.818H142.211C141.843 106.789 141.475 106.888 141.171 107.097C141.057 107.224 140.97 107.373 140.917 107.535C140.863 107.696 140.844 107.867 140.86 108.037V110.724C140.845 110.891 140.865 111.059 140.918 111.218C140.972 111.378 141.058 111.524 141.171 111.648C141.471 111.868 141.84 111.972 142.211 111.943H145.232V113.084H146.762ZM142.825 107.905H145.232V110.77H142.825C142.65 110.786 142.475 110.743 142.328 110.646C142.281 110.594 142.246 110.532 142.225 110.465C142.203 110.398 142.196 110.328 142.204 110.258V108.363C142.195 108.293 142.202 108.223 142.223 108.155C142.245 108.088 142.28 108.027 142.328 107.975C142.479 107.889 142.652 107.851 142.825 107.866V107.905ZM137.389 107.905H134.283V109.575H137.389C137.562 109.591 137.736 109.553 137.886 109.466C137.934 109.414 137.971 109.353 137.994 109.286C138.017 109.219 138.025 109.148 138.018 109.078V108.402C138.026 108.332 138.018 108.26 137.995 108.193C137.972 108.126 137.935 108.065 137.886 108.014C137.736 107.927 137.562 107.889 137.389 107.905ZM132.893 113.108V106.818H138.003C138.373 106.786 138.742 106.888 139.043 107.105C139.159 107.229 139.248 107.376 139.303 107.537C139.358 107.698 139.378 107.868 139.361 108.037V109.443C139.376 109.61 139.354 109.779 139.3 109.938C139.245 110.097 139.157 110.243 139.043 110.367C138.743 110.586 138.374 110.691 138.003 110.662H134.26V113.108H132.893ZM130.727 111.221H130.936C130.979 111.218 131.022 111.226 131.061 111.243C131.101 111.261 131.135 111.288 131.161 111.322C131.204 111.433 131.222 111.552 131.216 111.671V112.657C131.23 112.783 131.205 112.91 131.146 113.022C131.107 113.084 130.967 113.108 130.727 113.108H129.702C129.659 113.111 129.617 113.105 129.578 113.089C129.538 113.072 129.504 113.047 129.476 113.015C129.43 112.901 129.412 112.779 129.422 112.657V111.671C129.409 111.545 129.433 111.418 129.492 111.306C129.531 111.252 129.671 111.221 129.903 111.221H130.727ZM125.609 107.843H122.433V109.342H125.609C125.78 109.354 125.952 109.322 126.106 109.248C126.155 109.204 126.193 109.148 126.218 109.086C126.242 109.024 126.252 108.957 126.246 108.891V108.293C126.252 108.227 126.242 108.16 126.218 108.098C126.193 108.037 126.155 107.981 126.106 107.936C125.952 107.862 125.78 107.83 125.609 107.843ZM125.609 110.382H122.433V111.935H125.609C125.793 111.956 125.979 111.915 126.137 111.819C126.19 111.758 126.229 111.688 126.253 111.612C126.277 111.536 126.285 111.455 126.277 111.376V110.902C126.285 110.823 126.277 110.743 126.253 110.667C126.229 110.59 126.19 110.52 126.137 110.46C125.979 110.364 125.793 110.323 125.609 110.343V110.382ZM121.067 113.108V106.818H126.184C126.552 106.79 126.919 106.895 127.217 107.113C127.33 107.237 127.416 107.383 127.469 107.542C127.523 107.701 127.542 107.87 127.527 108.037V108.814C127.533 108.945 127.513 109.077 127.467 109.201C127.422 109.325 127.353 109.439 127.263 109.536C127.056 109.742 126.779 109.864 126.487 109.877C126.783 109.911 127.058 110.049 127.263 110.266C127.457 110.492 127.557 110.783 127.543 111.081V111.858C127.553 112.036 127.518 112.215 127.44 112.376C127.363 112.538 127.246 112.677 127.1 112.782C126.7 113.011 126.24 113.116 125.78 113.084L121.067 113.108ZM113.418 113.108V106.818H119.537V107.89H114.808V109.295H117.572V110.367H114.808V111.92H119.599V113.1L113.418 113.108ZM104.154 108.309C104.11 107.895 104.214 107.48 104.449 107.136C104.792 106.887 105.216 106.774 105.637 106.818H110.04C110.455 106.77 110.872 106.884 111.205 107.136C111.456 107.473 111.57 107.892 111.523 108.309V111.625C111.57 112.042 111.456 112.461 111.205 112.797C110.871 113.046 110.454 113.158 110.04 113.108H105.637C105.218 113.15 104.798 113.037 104.457 112.789C104.223 112.446 104.119 112.03 104.162 111.617V108.301L104.154 108.309ZM105.544 111.927H110.133V107.944H105.544V111.927ZM100.341 107.905H97.2353V109.575H100.341C100.514 109.592 100.688 109.554 100.838 109.466C100.887 109.414 100.924 109.353 100.946 109.286C100.969 109.219 100.977 109.148 100.97 109.078V108.402C100.978 108.332 100.97 108.26 100.947 108.193C100.924 108.126 100.887 108.065 100.838 108.014C100.688 107.926 100.514 107.888 100.341 107.905ZM95.8454 113.108V106.818H100.955C101.327 106.784 101.7 106.886 102.003 107.105C102.117 107.231 102.203 107.378 102.256 107.538C102.31 107.699 102.329 107.869 102.314 108.037V109.443C102.328 109.61 102.307 109.779 102.252 109.938C102.197 110.097 102.11 110.243 101.995 110.367C101.695 110.586 101.326 110.691 100.955 110.662H97.2121V113.108H95.8454ZM88.2821 113.108V106.818H94.3622V107.89H89.6332V109.295H92.3976V110.367H89.6332V111.92H94.4243V113.1L88.2821 113.108ZM81.9379 113.108V106.818H87.3736L86.729 107.913H83.3123V113.108H81.9379ZM75.1046 110.6H77.7214L76.4246 108.037L75.1046 110.6ZM72.4256 113.108L75.7957 106.818H77.139L80.5712 113.108H79.0182L78.3038 111.733H74.5144L73.8233 113.108H72.4256ZM68.6983 106.818L72.146 113.108H70.593L68.1702 108.565L65.8407 113.108H64.4507L67.7432 106.818H68.6983ZM58.7355 110.6H61.3524L60.0556 108.037L58.7355 110.6ZM56.0565 113.108L59.4266 106.818H60.77L64.2022 113.108H62.6492L61.927 111.733H58.1454L57.4465 113.108H56.0565ZM48.4001 113.108V106.818H49.8056V109.443L53.1135 106.818H55.1325L51.1722 109.784L55.6139 113.108H53.3853L49.8056 110.343V113.108H48.4001Z" fill="white"/>
</svg>
